ffmpeg version 3.4.8-0ubuntu0.2 Copyright (c) 2000-2020 the FFmpeg developers
  built with gcc 7 (Ubuntu 7.5.0-3ubuntu1~18.04)
  configuration: --prefix=/usr --extra-version=0ubuntu0.2 --toolchain=hardened --libdir=/usr/lib/x86_64-linux-gnu --incdir=/usr/include/x86_64-linux-gnu --enable-gpl --disable-stripping --enable-avresample --enable-avisynth --enable-gnutls --enable-ladspa --enable-libass --enable-libbluray --enable-libbs2b --enable-libcaca --enable-libcdio --enable-libflite --enable-libfontconfig --enable-libfreetype --enable-libfribidi --enable-libgme --enable-libgsm --enable-libmp3lame --enable-libmysofa --enable-libopenjpeg --enable-libopenmpt --enable-libopus --enable-libpulse --enable-librubberband --enable-librsvg --enable-libshine --enable-libsnappy --enable-libsoxr --enable-libspeex --enable-libssh --enable-libtheora --enable-libtwolame --enable-libvorbis --enable-libvpx --enable-libwavpack --enable-libwebp --enable-libx265 --enable-libxml2 --enable-libxvid --enable-libzmq --enable-libzvbi --enable-omx --enable-openal --enable-opengl --enable-sdl2 --enable-libdc1394 --enable-libdrm --enable-libiec61883 --enable-chromaprint --enable-frei0r --enable-libopencv --enable-libx264 --enable-shared
  libavutil      55. 78.100 / 55. 78.100
  libavcodec     57.107.100 / 57.107.100
  libavformat    57. 83.100 / 57. 83.100
  libavdevice    57. 10.100 / 57. 10.100
  libavfilter     6.107.100 /  6.107.100
  libavresample   3.  7.  0 /  3.  7.  0
  libswscale      4.  8.100 /  4.  8.100
  libswresample   2.  9.100 /  2.  9.100
  libpostproc    54.  7.100 / 54.  7.100
Input #0, mov,mp4,m4a,3gp,3g2,mj2, from 'cepki-2020-09-3.mp4':
  Metadata:
    major_brand     : mp42
    minor_version   : 0
    compatible_brands: isommp42
    creation_time   : 2020-09-08T15:58:14.000000Z
    encoder         : Google
  Duration: 00:15:07.92, start: 0.000000, bitrate: 1223 kb/s
    Stream #0:0(und): Video: h264 (High) (avc1 / 0x31637661), yuv420p(tv, bt709), 1280x720 [SAR 1:1 DAR 16:9], 1092 kb/s, 25 fps, 25 tbr, 12800 tbn, 50 tbc (default)
    Metadata:
      creation_time   : 2020-09-08T15:58:14.000000Z
      handler_name    : ISO Media file produced by Google Inc. Created on: 09/08/2020.
    Stream #0:1(eng): Audio: aac (LC) (mp4a / 0x6134706D), 44100 Hz, stereo, fltp, 128 kb/s (default)
    Metadata:
      creation_time   : 2020-09-08T15:58:14.000000Z
      handler_name    : ISO Media file produced by Google Inc. Created on: 09/08/2020.
Stream mapping:
  Stream #0:0 -> #0:0 (h264 (native) -> h264 (libx264))
  Stream #0:1 -> #0:1 (aac (native) -> mp3 (libmp3lame))
Press [q] to stop, [?] for help
[libx264 @ 0x564108c53cc0] using SAR=1/1
[libx264 @ 0x564108c53cc0] using cpu capabilities: MMX2 SSE2Fast LZCNT
[libx264 @ 0x564108c53cc0] profile High, level 3.1
Output #0, avi, to 'cepki-2020-09-3-out.avi':
  Metadata:
    major_brand     : mp42
    minor_version   : 0
    compatible_brands: isommp42
    ISFT            : Lavf57.83.100
    Stream #0:0(und): Video: h264 (libx264) (H264 / 0x34363248), yuv420p(progressive), 1280x720 [SAR 1:1 DAR 16:9], q=-1--1, 25 fps, 25 tbn, 25 tbc (default)
    Metadata:
      creation_time   : 2020-09-08T15:58:14.000000Z
      handler_name    : ISO Media file produced by Google Inc. Created on: 09/08/2020.
      encoder         : Lavc57.107.100 libx264
    Side data:
      cpb: bitrate max/min/avg: 0/0/0 buffer size: 0 vbv_delay: -1
    Stream #0:1(eng): Audio: mp3 (libmp3lame) (U[0][0][0] / 0x0055), 44100 Hz, stereo, fltp (default)
    Metadata:
      creation_time   : 2020-09-08T15:58:14.000000Z
      handler_name    : ISO Media file produced by Google Inc. Created on: 09/08/2020.
      encoder         : Lavc57.107.100 libmp3lame
frame=   49 fps=0.0 q=28.0 size=      10kB time=00:00:01.82 bitrate=  43.7kbits/s speed=3.35x    frame=   76 fps= 72 q=28.0 size=      10kB time=00:00:02.82 bitrate=  28.3kbits/s speed=2.68x    frame=  105 fps= 67 q=28.0 size=      10kB time=00:00:03.81 bitrate=  21.0kbits/s speed=2.43x    frame=  128 fps= 61 q=28.0 size=      10kB time=00:00:04.72 bitrate=  16.9kbits/s speed=2.24x    frame=  141 fps= 54 q=28.0 size=      10kB time=00:00:05.22 bitrate=  15.3kbits/s speed=1.99x    frame=  157 fps= 49 q=28.0 size=     266kB time=00:00:06.13 bitrate= 354.7kbits/s speed=1.93x    frame=  173 fps= 47 q=28.0 size=     266kB time=00:00:06.58 bitrate= 330.7kbits/s speed=1.79x    frame=  186 fps= 44 q=28.0 size=     266kB time=00:00:07.05 bitrate= 308.7kbits/s speed=1.68x    frame=  201 fps= 43 q=28.0 size=     266kB time=00:00:07.52 bitrate= 289.4kbits/s speed= 1.6x    frame=  217 fps= 41 q=28.0 size=     266kB time=00:00:08.46 bitrate= 257.2kbits/s speed=1.61x    frame=  231 fps= 40 q=28.0 size=     522kB time=00:00:08.90 bitrate= 479.8kbits/s speed=1.54x    frame=  246 fps= 39 q=28.0 size=     522kB time=00:00:09.37 bitrate= 455.8kbits/s speed=1.49x    frame=  263 fps= 39 q=28.0 size=     522kB time=00:00:10.31 bitrate= 414.2kbits/s speed=1.51x    frame=  281 fps= 38 q=28.0 size=     522kB time=00:00:10.76 bitrate= 397.1kbits/s speed=1.47x    frame=  293 fps= 37 q=28.0 size=     778kB time=00:00:11.23 bitrate= 567.2kbits/s speed=1.42x    frame=  311 fps= 37 q=28.0 size=     778kB time=00:00:12.17 bitrate= 523.4kbits/s speed=1.44x    